<svg xmlns="http://www.w3.org/2000/svg" width="260" height="40" fill="none"><g clip-path="url(#a)"><path fill="#3A724F" fill-rule="evenodd" d="M27.626 4.567 31.293 0l10.394 4.317-3.665 4.566c-.644.801.32 1.775 1.582 1.6l7.025-.975 2.273 8.477-7.024.974C30.515 20.535 21.84 11.775 27.626 4.567Z" clip-rule="evenodd"/><path fill="#DC8E43" fill-rule="evenodd" d="M21.276 35.433 17.608 40 7.213 35.684l3.667-4.567c.643-.8-.32-1.775-1.584-1.6l-7.023.974L0 22.015l7.024-.974c11.362-1.576 20.036 7.184 14.252 14.392Z" clip-rule="evenodd"/><path fill="#000" fill-rule="evenodd" d="M21.592 4.567 17.927 0 7.531 4.317l3.667 4.566c.642.801-.32 1.775-1.584 1.6L2.59 9.508.32 17.985l7.022.974c11.364 1.576 20.038-7.184 14.251-14.392Z" clip-rule="evenodd"/><path fill="#C85D1B" fill-rule="evenodd" d="M27.32 35.433 30.986 40l10.395-4.316-3.666-4.567c-.642-.8.32-1.775 1.584-1.6l7.022.974 2.274-8.476-7.025-.974c-11.362-1.576-20.035 7.184-14.25 14.392h.002Z" clip-rule="evenodd"/><path fill="#000" d="M226.79 30.153v-8.5c0-1.178.376-2.235 1.13-3.17.78-.954 1.885-1.702 3.316-2.245 1.431-.542 3.134-.813 5.11-.813.922-.007 1.84.078 2.73.252.833.15 1.587.365 2.262.645.703.262 1.3.58 1.795.954h.078c.53-.38 1.134-.7 1.794-.954a11.85 11.85 0 0 1 2.302-.645 14.386 14.386 0 0 1 2.77-.252c1.976 0 3.679.27 5.11.813 1.429.543 2.534 1.29 3.314 2.245.782.935 1.171 1.991 1.171 3.17v8.5h-6.086v-8.36c0-.467-.168-.888-.506-1.262-.31-.391-.753-.72-1.287-.954a4.569 4.569 0 0 0-1.873-.365 4.84 4.84 0 0 0-1.911.365c-.534.234-.977.563-1.287.954-.315.381-.478.818-.469 1.262v8.36h-6.045v-8.36c0-.467-.17-.888-.507-1.262-.317-.397-.775-.726-1.327-.954a4.569 4.569 0 0 0-1.873-.365c-.702 0-1.339.122-1.91.365-.535.234-.978.563-1.288.954-.314.382-.476.818-.468 1.262v8.36h-6.045Zm-13.224.337c-2.054 0-3.836-.28-5.343-.842-1.483-.58-2.627-1.356-3.433-2.328-.807-.991-1.21-2.086-1.21-3.283v-8.276h6.047v8.164c0 .505.168.973.506 1.403.338.411.794.748 1.365 1.01.598.243 1.275.365 2.029.365.728 0 1.378-.122 1.95-.365.598-.262 1.067-.599 1.405-1.01.338-.43.507-.898.507-1.403v-8.164h6.046v8.276c0 1.197-.391 2.292-1.171 3.283-.78.972-1.91 1.749-3.393 2.328-1.457.561-3.225.842-5.305.842Zm-29.461-.337v-3.45h9.635c.26 0 .494-.038.703-.113.207-.093.376-.215.506-.364a.752.752 0 0 0 .195-.491.752.752 0 0 0-.195-.491 1.191 1.191 0 0 0-.506-.337 1.701 1.701 0 0 0-.703-.14h-3.51c-1.302 0-2.485-.15-3.55-.449-1.012-.301-1.88-.808-2.497-1.459-.598-.673-.897-1.543-.897-2.609 0-.823.273-1.571.819-2.244.569-.67 1.359-1.23 2.301-1.628a8.346 8.346 0 0 1 3.238-.617h9.634v3.479h-8.698a1.686 1.686 0 0 0-.936.253.88.88 0 0 0-.264.282.633.633 0 0 0-.087.335c0 .262.118.486.351.673.256.167.591.258.936.253h3.433c1.456 0 2.704.159 3.744.476 1.067.3 1.886.786 2.458 1.46.598.673.897 1.542.897 2.608 0 .842-.299 1.609-.897 2.3-.567.689-1.374 1.26-2.341 1.656-.962.412-2.054.617-3.276.617h-10.493Zm-13.172-14.728c1.69 0 3.185.196 4.485.589 1.277.35 2.425.907 3.355 1.627.948.706 1.679 1.547 2.145 2.469.494.935.741 1.973.741 3.114 0 1.421-.415 2.684-1.248 3.787-.769 1.057-1.93 1.94-3.354 2.553-1.43.617-3.095.926-4.993.926-.806 0-1.573-.075-2.302-.224a8.959 8.959 0 0 1-1.949-.646 4.987 4.987 0 0 1-1.444-1.038h-.118v7.66h-6.045V23.223c0-1.59.442-2.965 1.326-4.124.858-1.14 2.159-2.077 3.745-2.694 1.612-.654 3.498-.981 5.656-.981v.001Zm0 3.759c-.936 0-1.755.168-2.457.505-.677.318-1.197.767-1.562 1.347a3.44 3.44 0 0 0-.545 1.907c0 .711.183 1.347.545 1.908.365.561.885 1.01 1.562 1.347.702.318 1.521.477 2.457.477.935 0 1.742-.16 2.418-.477.68-.34 1.219-.805 1.561-1.347a3.269 3.269 0 0 0 .584-1.908c0-.71-.195-1.346-.584-1.907-.364-.58-.884-1.03-1.561-1.347-.676-.337-1.483-.505-2.418-.505Zm-19.915 10.969V15.761h6.086v14.392h-6.086Zm3.042-16.019c-.962 0-1.793-.252-2.495-.757-.702-.505-1.054-1.104-1.054-1.796s.352-1.29 1.054-1.795c.702-.524 1.533-.786 2.495-.786.963 0 1.795.262 2.498.786.702.505 1.052 1.103 1.052 1.795s-.35 1.29-1.052 1.796c-.703.505-1.535.757-2.498.757ZM137.793 30.49c-2.053 0-3.9-.327-5.539-.982-1.608-.634-2.954-1.563-3.9-2.693-.936-1.141-1.404-2.422-1.404-3.844 0-1.44.468-2.721 1.404-3.843.946-1.13 2.292-2.059 3.9-2.693 1.639-.674 3.486-1.01 5.539-1.01 2.055 0 3.888.336 5.5 1.01 1.603.63 2.937 1.56 3.861 2.693.963 1.122 1.444 2.403 1.444 3.843 0 1.422-.481 2.703-1.444 3.844-.924 1.133-2.258 2.063-3.861 2.693-1.637.655-3.471.982-5.5.982Zm0-3.787c.962 0 1.795-.169 2.497-.505.703-.337 1.268-.802 1.638-1.347a3.256 3.256 0 0 0 .585-1.908c0-.692-.194-1.318-.585-1.88-.37-.545-.936-1.01-1.638-1.346-.702-.337-1.535-.505-2.497-.505s-1.807.168-2.535.505c-.702.337-1.268.802-1.639 1.347-.397.585-.597 1.229-.584 1.88 0 .71.195 1.346.584 1.907.371.545.937 1.01 1.639 1.347.728.336 1.573.505 2.535.505Zm-30.492 9.146v-3.732h9.984c.391 0 .716-.093.976-.28a.914.914 0 0 0 .295-.292.634.634 0 0 0 .094-.354v-3.17h-.116a8.829 8.829 0 0 1-1.677 1.094c-.573.3-1.224.524-1.951.674a11.49 11.49 0 0 1-2.379.224c-1.768 0-3.355-.3-4.759-.898-1.378-.617-2.471-1.468-3.277-2.553-.779-1.084-1.169-2.319-1.169-3.703a6.25 6.25 0 0 1 1.209-3.731c.832-1.122 2.041-2.02 3.628-2.693 1.585-.674 3.523-1.01 5.811-1.01 2.185 0 4.07.327 5.656.982 1.594.622 2.896 1.568 3.745 2.72.884 1.16 1.326 2.526 1.326 4.097v8.416c0 1.29-.532 2.31-1.599 3.058-1.04.767-2.483 1.15-4.329 1.15l-11.468.001Zm6.708-9.483c.936 0 1.742-.15 2.42-.449.668-.312 1.206-.748 1.558-1.262.37-.541.557-1.137.547-1.74a3.33 3.33 0 0 0-.545-1.851c-.365-.561-.885-1.001-1.562-1.319-.676-.337-1.482-.505-2.419-.505-.909 0-1.716.159-2.418.477-.676.318-1.196.748-1.56 1.29a3.207 3.207 0 0 0-.545 1.824c0 .655.181 1.253.545 1.796.364.523.884.944 1.561 1.262.701.318 1.508.477 2.418.477ZM91.032 30.49c-2.054 0-3.9-.327-5.538-.982-1.609-.634-2.955-1.563-3.901-2.693-.936-1.141-1.404-2.422-1.404-3.844 0-1.44.468-2.721 1.404-3.843.946-1.13 2.292-2.06 3.901-2.693 1.638-.674 3.484-1.01 5.538-1.01 2.055 0 3.888.336 5.5 1.01 1.603.63 2.937 1.56 3.861 2.693.963 1.122 1.444 2.403 1.444 3.843 0 1.422-.481 2.703-1.444 3.844-.924 1.133-2.258 2.063-3.86 2.693-1.639.655-3.472.982-5.501.982Zm0-3.787c.962 0 1.794-.169 2.497-.505.702-.337 1.267-.802 1.638-1.347.39-.561.584-1.197.584-1.908 0-.692-.195-1.318-.584-1.88-.37-.545-.936-1.01-1.638-1.346-.702-.337-1.535-.505-2.497-.505s-1.807.168-2.535.505c-.702.337-1.268.802-1.639 1.347-.397.585-.597 1.229-.584 1.88 0 .71.195 1.346.584 1.907.371.545.937 1.01 1.64 1.347.727.336 1.572.505 2.534.505Zm-19.362 3.45c-1.691 0-3.173-.27-4.447-.813-1.238-.517-2.262-1.262-2.964-2.16-.702-.898-1.054-1.89-1.054-2.974V10.515h6.553v14.027c0 .45.222.842.663 1.179.442.336.987.505 1.638.505h7.216v3.927H71.67Z"/></g><defs><clipPath id="a"><path fill="#fff" d="M0 0h260v40H0z"/></clipPath></defs></svg>