<svg xmlns="http://www.w3.org/2000/svg" width="259" height="39" fill="none"><g fill="#000" clip-path="url(#a)"><path d="M37 23.4C37 17.656 31.627 13 25 13H15v10.4h10v13h12v-13Z"/><path d="M0 24.265c0 6.701 6.268 12.133 14 12.133h8v-10.4h-8c-1.105 0-2-.776-2-1.733v-.867H0v.867ZM25 0c14.912 0 27 10.476 27 23.4v13H40v-13c0-7.18-6.716-13-15-13H14c-1.105 0-2 .776-2 1.733V13H0v-.867C0 5.433 6.268 0 14 0h11Zm127.17 9.981c-.783 0-1.439-.23-1.97-.688-.53-.458-.795-1.026-.795-1.703s.265-1.244.795-1.703c.531-.459 1.187-.688 1.97-.688.757 0 1.401.23 1.931.688.53.459.795 1.026.795 1.703s-.265 1.245-.795 1.703c-.53.459-1.174.688-1.931.688Zm2.12 2.39v18.046h-4.317V12.371h4.317Z"/><path fill-rule="evenodd" d="M165.942 12.93c-1.263.567-2.26 1.266-2.992 2.096v-2.653h-4.317V39h4.317V27.8c.783.83 1.793 1.528 3.03 2.096 1.237.546 2.65.819 4.241.819 1.818 0 3.471-.393 4.961-1.18 1.515-.807 2.701-1.92 3.56-3.34.858-1.441 1.287-3.068 1.287-4.88 0-1.812-.429-3.417-1.287-4.814-.859-1.398-2.045-2.479-3.56-3.243-1.49-.786-3.143-1.179-4.961-1.179-1.591 0-3.017.284-4.279.852Zm8.785 5.174c.606.896.909 1.966.909 3.21 0 1.245-.303 2.337-.909 3.275a5.817 5.817 0 0 1-2.347 2.162c-.96.48-1.995.72-3.106.72a7 7 0 0 1-3.105-.72 5.993 5.993 0 0 1-2.348-2.096c-.581-.94-.871-2.03-.871-3.275s.29-2.326.871-3.243a5.993 5.993 0 0 1 2.348-2.096 7 7 0 0 1 3.105-.72c1.111 0 2.146.24 3.106.72a5.442 5.442 0 0 1 2.347 2.063Z" clip-rule="evenodd"/><path d="M190.547 30.714c-1.641 0-3.118-.251-4.431-.753-1.287-.524-2.31-1.223-3.067-2.096-.758-.896-1.162-1.89-1.212-2.98h4.469c.075.763.492 1.407 1.249 1.931.783.503 1.755.754 2.916.754 1.212 0 2.146-.197 2.803-.59.681-.415 1.022-.939 1.022-1.572 0-.677-.379-1.179-1.136-1.507-.732-.327-1.906-.687-3.522-1.08-1.565-.372-2.84-.732-3.825-1.081a6.93 6.93 0 0 1-2.575-1.605c-.707-.72-1.06-1.67-1.06-2.85 0-.96.328-1.834.984-2.62.657-.807 1.591-1.44 2.803-1.9 1.237-.458 2.651-.687 4.241-.687 2.373 0 4.279.524 5.718 1.572 1.465 1.026 2.247 2.435 2.348 4.225h-4.317c-.076-.808-.454-1.452-1.136-1.932-.682-.48-1.603-.72-2.764-.72-1.136 0-2.007.185-2.613.556-.606.371-.909.863-.909 1.474 0 .48.202.884.606 1.212.404.327.896.59 1.477.786.58.174 1.439.404 2.575.688 1.515.349 2.752.71 3.711 1.08.985.35 1.83.874 2.537 1.573.707.698 1.073 1.626 1.098 2.783a4.246 4.246 0 0 1-.984 2.752c-.657.807-1.591 1.44-2.803 1.9-1.186.458-2.587.687-4.203.687Zm64.249-17.752c-1.287-.59-2.751-.884-4.392-.884a9.69 9.69 0 0 0-4.318.983c-1.338.633-2.322 1.495-2.953 2.587-.707-1.157-1.717-2.041-3.03-2.653-1.313-.611-2.802-.917-4.469-.917a9.678 9.678 0 0 0-3.484.622c-1.085.415-1.981.994-2.688 1.736v-2.063h-4.318v18.046h4.318V20.332c0-1.616.467-2.85 1.401-3.701.959-.874 2.247-1.31 3.863-1.31 1.615 0 2.89.436 3.824 1.31.934.851 1.402 2.085 1.402 3.7V30.42h4.279V20.332c0-1.616.467-2.85 1.401-3.701.959-.874 2.247-1.31 3.863-1.31 1.615 0 2.89.436 3.825 1.31.934.851 1.401 2.085 1.401 3.7V30.42H259V19.775c0-1.638-.379-3.035-1.136-4.192-.732-1.158-1.755-2.031-3.068-2.62Zm-34.022 17.455V12.371h-4.317v10.055c0 1.616-.48 2.86-1.439 3.734-.935.851-2.209 1.277-3.825 1.277s-2.891-.426-3.825-1.277c-.934-.874-1.401-2.118-1.401-3.734V12.37h-4.28v10.612c0 1.637.367 3.035 1.099 4.192.757 1.157 1.78 2.03 3.067 2.62 1.313.59 2.79.884 4.431.884a9.678 9.678 0 0 0 3.484-.622c1.111-.436 2.007-1.026 2.689-1.768v2.128h4.317Z"/><path fill-rule="evenodd" d="M130.86 29.568c1.591.764 3.371 1.146 5.34 1.146 1.995 0 3.812-.382 5.453-1.146 1.667-.786 2.979-1.89 3.939-3.308.959-1.42 1.439-3.046 1.439-4.88s-.467-3.461-1.401-4.88c-.934-1.42-2.209-2.511-3.825-3.276-1.616-.764-3.421-1.146-5.416-1.146-1.994 0-3.799.382-5.415 1.146-1.616.765-2.891 1.856-3.825 3.276-.934 1.419-1.401 3.046-1.401 4.88 0 1.856.454 3.493 1.363 4.912.909 1.398 2.159 2.49 3.749 3.276Zm8.445-2.784a7.105 7.105 0 0 1-3.105.688c-1.742 0-3.194-.525-4.355-1.573-1.136-1.07-1.704-2.576-1.704-4.52 0-1.31.278-2.412.833-3.307a5.301 5.301 0 0 1 2.234-2.064 7.113 7.113 0 0 1 3.106-.688c1.111 0 2.146.23 3.105.688a5.497 5.497 0 0 1 2.31 2.064c.581.895.871 1.998.871 3.308 0 1.31-.303 2.423-.909 3.34a5.688 5.688 0 0 1-2.386 2.064Zm-31.181 2.826-.087-.042c-1.591-.786-2.841-1.878-3.75-3.276-.908-1.419-1.363-3.056-1.363-4.912 0-1.834.467-3.461 1.401-4.88.934-1.42 2.209-2.511 3.825-3.276 1.616-.764 3.421-1.146 5.416-1.146 1.994 0 3.799.382 5.415 1.146 1.616.765 2.891 1.856 3.825 3.276.934 1.419 1.401 3.046 1.401 4.88s-.48 3.46-1.439 4.88c-.959 1.419-2.272 2.522-3.939 3.308-1.411.657-2.953 1.031-4.625 1.123 2.049.812 5.167 1.466 6.917 1.834.749.157 1.248.262 1.306.304h.003v3.737h-15.729v-3.737h9.064c-2.306-.45-5.437-1.928-7.641-3.22Zm5.252-2.139a7.12 7.12 0 0 0 3.106-.687 5.692 5.692 0 0 0 2.385-2.064c.606-.917.909-2.03.909-3.34s-.29-2.413-.871-3.308a5.49 5.49 0 0 0-2.31-2.064 7.105 7.105 0 0 0-3.105-.688 7.12 7.12 0 0 0-3.106.688 5.307 5.307 0 0 0-2.234 2.064c-.555.895-.833 1.998-.833 3.308 0 1.943.568 3.45 1.704 4.52 1.162 1.047 2.613 1.572 4.355 1.572Zm-28.163 2.097c1.59.764 3.37 1.146 5.34 1.146 1.994 0 3.812-.382 5.453-1.146 1.666-.786 2.979-1.89 3.938-3.308.959-1.42 1.439-3.046 1.439-4.88s-.467-3.461-1.4-4.88c-.935-1.42-2.21-2.511-3.826-3.276-1.615-.764-3.42-1.146-5.415-1.146s-3.8.382-5.415 1.146c-1.616.765-2.891 1.856-3.825 3.276-.934 1.419-1.401 3.046-1.401 4.88 0 1.856.454 3.493 1.363 4.912.909 1.398 2.158 2.49 3.749 3.276Zm8.445-2.784a7.108 7.108 0 0 1-3.105.688c-1.742 0-3.194-.525-4.355-1.573-1.136-1.07-1.705-2.576-1.705-4.52 0-1.31.278-2.412.834-3.307a5.303 5.303 0 0 1 2.234-2.064 7.108 7.108 0 0 1 3.105-.688 7.12 7.12 0 0 1 3.106.688 5.493 5.493 0 0 1 2.31 2.064c.58.895.87 1.998.87 3.308 0 1.31-.302 2.423-.908 3.34a5.69 5.69 0 0 1-2.386 2.064Z" clip-rule="evenodd"/><path d="M70.317 27.406h8.9v3.013H66V7.656h4.317v19.75Z"/></g><defs><clipPath id="a"><path fill="#fff" d="M0 0h259v39H0z"/></clipPath></defs></svg>