<svg xmlns="http://www.w3.org/2000/svg" width="130" height="20" fill="none"><g fill="#000" clip-path="url(#a)"><path fill-rule="evenodd" d="M0 6.977v7.442h2.72a2.5 2.5 0 0 1 .832.141c.264.094.504.23.706.403.202.173.362.378.472.604.11.226.165.468.165.712v2.326h6.528l8.159-6.977V4.186h-2.72a2.5 2.5 0 0 1-.833-.142 2.231 2.231 0 0 1-.706-.403 1.87 1.87 0 0 1-.471-.603 1.63 1.63 0 0 1-.166-.712V0H8.16L0 6.977Zm9.247 6.976H5.439V8.838l4.896-4.186h3.807v5.116l-4.895 4.187Z" clip-rule="evenodd"/><path d="M125.413 5.695c1.374 0 2.479.363 3.314 1.089C129.576 7.498 130 8.5 130 9.79v5.614h-2.829v-5.286c0-.749-.222-1.319-.667-1.71-.444-.403-1.05-.605-1.818-.605-.767 0-1.38.202-1.838.605-.445.391-.667.961-.667 1.71v5.286h-2.828v-5.286c0-.749-.223-1.319-.667-1.71-.444-.403-1.051-.605-1.818-.605-.781 0-1.401.202-1.859.605-.444.391-.667.961-.667 1.71v5.286h-2.828v-9.57h2.828V6.99c.364-.403.829-.72 1.394-.95a5.095 5.095 0 0 1 1.899-.346c.876 0 1.657.162 2.344.484.687.311 1.219.76 1.596 1.348.364-.553.889-.997 1.576-1.33a5.188 5.188 0 0 1 2.262-.502Zm-15.983.137v9.57h-2.849v-1.208c-.363.414-.842.742-1.434.984a5.098 5.098 0 0 1-1.9.346c-.875 0-1.649-.156-2.323-.467a3.803 3.803 0 0 1-1.596-1.399c-.377-.622-.565-1.359-.565-2.211V5.832h2.828v5.27c0 .76.222 1.347.666 1.761.445.404 1.051.605 1.819.605.781 0 1.394-.201 1.838-.605.445-.414.667-1.002.667-1.762V5.832h2.849Zm-16.584 9.73c-.916 0-1.738-.139-2.466-.415-.727-.288-1.306-.674-1.737-1.158-.418-.483-.647-1.019-.687-1.606h2.849c.053.368.262.674.626.915.377.242.842.363 1.394.363.539 0 .957-.092 1.252-.276.31-.184.466-.42.466-.708 0-.311-.19-.542-.566-.692-.364-.16-.95-.334-1.758-.518-.835-.173-1.522-.351-2.06-.535a3.701 3.701 0 0 1-1.375-.847c-.377-.38-.565-.893-.565-1.538 0-.53.175-1.013.525-1.45.364-.438.875-.784 1.535-1.037.674-.254 1.462-.38 2.364-.38 1.334 0 2.398.288 3.192.864.795.564 1.233 1.33 1.314 2.297H94.44c-.04-.38-.229-.68-.565-.898-.323-.23-.761-.346-1.313-.346-.512 0-.91.081-1.193.242-.269.161-.404.386-.404.674 0 .322.189.57.566.743.377.161.963.328 1.758.5a17.14 17.14 0 0 1 2 .536 3.45 3.45 0 0 1 1.354.864c.39.38.592.887.606 1.52a2.26 2.26 0 0 1-.546 1.486c-.35.438-.862.783-1.535 1.037-.66.242-1.435.363-2.323.363ZM78.405 7.217c.364-.437.862-.8 1.495-1.088.646-.3 1.38-.45 2.202-.45.956 0 1.818.202 2.586.605a4.491 4.491 0 0 1 1.839 1.728c.458.737.686 1.595.686 2.574 0 .979-.228 1.849-.686 2.609a4.609 4.609 0 0 1-1.839 1.745c-.768.414-1.63.622-2.586.622-.822 0-1.549-.144-2.182-.432-.62-.288-1.125-.651-1.515-1.089v5.926h-2.829V5.835h2.829v1.382Zm5.92 3.37c0-.577-.142-1.072-.425-1.487a2.582 2.582 0 0 0-1.091-.967 3.246 3.246 0 0 0-1.455-.328c-.511 0-.996.115-1.454.345a2.748 2.748 0 0 0-1.091.968c-.27.426-.404.927-.404 1.503 0 .575.135 1.076.404 1.503.283.426.646.754 1.09.984a3.33 3.33 0 0 0 1.455.329 3.12 3.12 0 0 0 1.455-.346 2.7 2.7 0 0 0 1.091-.985c.283-.426.424-.932.424-1.52Zm-12.23-5.894c-.498 0-.916-.133-1.252-.398-.324-.276-.486-.616-.486-1.019 0-.403.162-.737.486-1.002.336-.276.754-.415 1.252-.415.499 0 .91.139 1.232.415.337.265.506.599.506 1.002s-.169.743-.506 1.02c-.323.264-.733.397-1.232.397Zm1.394 1.14v9.57H70.66v-9.57h2.829Zm-10.036 9.729c-1.077 0-2.046-.202-2.909-.605-.862-.415-1.542-.996-2.04-1.745-.485-.749-.728-1.612-.728-2.591 0-.98.25-1.843.748-2.592.512-.748 1.206-1.324 2.08-1.727.877-.415 1.853-.622 2.93-.622 1.078 0 2.054.207 2.93.622.875.403 1.562.979 2.06 1.727.512.749.769 1.613.769 2.592 0 .979-.263 1.842-.789 2.591-.511.749-1.212 1.33-2.1 1.745-.876.403-1.86.604-2.95.604Zm0-2.108c.512 0 .99-.104 1.435-.311a2.58 2.58 0 0 0 1.09-.968c.27-.426.405-.944.405-1.554 0-.91-.283-1.607-.849-2.09-.552-.496-1.232-.744-2.04-.744s-1.488.248-2.04.743c-.54.484-.808 1.18-.808 2.09 0 .91.262 1.613.787 2.108.54.484 1.213.726 2.02.726Zm-12.175 2.108c-1.078 0-2.047-.202-2.91-.605-.862-.415-1.542-.996-2.04-1.745-.485-.749-.727-1.612-.727-2.591 0-.98.249-1.843.747-2.592.512-.748 1.206-1.324 2.081-1.727.876-.415 1.852-.622 2.93-.622 1.077 0 2.054.207 2.93.622.874.403 1.561.979 2.06 1.727.511.749.768 1.613.768 2.592 0 .979-.263 1.842-.788 2.591-.512.749-1.212 1.33-2.102 1.745-.875.403-1.858.604-2.95.604Zm0-2.108c.512 0 .99-.104 1.434-.311a2.582 2.582 0 0 0 1.091-.968c.27-.426.404-.944.404-1.554 0-.91-.283-1.607-.848-2.09-.553-.496-1.233-.744-2.04-.744-.809 0-1.49.248-2.041.743-.54.484-.809 1.18-.809 2.09 0 .91.263 1.613.788 2.108.54.484 1.213.726 2.02.726Zm-12.177 2.108c-1.078 0-2.047-.202-2.91-.605-.861-.415-1.541-.996-2.04-1.745-.485-.749-.727-1.612-.727-2.591 0-.98.249-1.843.747-2.592.512-.748 1.206-1.324 2.081-1.727.876-.415 1.852-.622 2.93-.622 1.077 0 2.054.207 2.93.622.875.403 1.562.979 2.06 1.727.512.749.768 1.613.768 2.592 0 .979-.263 1.842-.788 2.591-.512.749-1.212 1.33-2.101 1.745-.876.403-1.86.604-2.95.604Zm0-2.108c.512 0 .99-.104 1.434-.311a2.582 2.582 0 0 0 1.091-.968c.27-.426.405-.944.405-1.554 0-.91-.283-1.607-.85-2.09-.551-.496-1.231-.744-2.04-.744-.808 0-1.488.248-2.04.743-.539.484-.808 1.18-.808 2.09 0 .91.262 1.613.788 2.108.538.484 1.212.726 2.02.726Zm-10.708.035h4.647v1.917h-7.476V3.348h2.829v10.14Z"/><path d="M46.347 16.689c.716 1.822 2.73 3.134 5.102 3.134h.295c2.973 0 5.382-2.06 5.382-4.602v-.26h-2.918v.26c0 1.164-1.103 2.107-2.464 2.107h-.295c-.694 0-1.32-.245-1.768-.64h-3.334Z"/></g><defs><clipPath id="a"><path fill="#fff" d="M0 0h130v20H0z"/></clipPath></defs></svg>