<svg xmlns="http://www.w3.org/2000/svg" width="260" height="40" fill="none"><g clip-path="url(#a)"><path fill="#000" d="M57.129 3.469v27.447h18.603v-4.974H63.264V3.47H57.13Zm93.692 7.331v20.116h5.937V10.801h-5.937Zm0-7.331v5.526h5.937V3.469h-5.937Z"/><path fill="#000" fill-rule="evenodd" d="M159.916 38.285V10.802h5.542v2.086c.64-.701 1.431-1.261 2.374-1.681 1.24-.565 2.652-.848 4.235-.848 2.059 0 3.919.467 5.582 1.4a10.697 10.697 0 0 1 3.958 3.795c.976 1.572 1.464 3.34 1.464 5.305 0 1.94-.488 3.709-1.464 5.305-.95 1.597-2.257 2.862-3.919 3.795-1.663.933-3.549 1.4-5.661 1.4-1.477 0-2.849-.246-4.115-.737a7.619 7.619 0 0 1-2.059-1.25v8.913h-5.937Zm11.399-11.9c1.109 0 2.084-.233 2.929-.7a5.039 5.039 0 0 0 1.979-1.952c.476-.835.713-1.793.713-2.874 0-1.08-.237-2.026-.713-2.837a5.04 5.04 0 0 0-1.979-1.952c-.845-.491-1.82-.737-2.929-.737-1.055 0-2.006.233-2.849.7a5.101 5.101 0 0 0-1.94 1.953c-.448.835-.673 1.793-.673 2.873 0 1.08.225 2.039.673 2.874a5.101 5.101 0 0 0 1.94 1.953c.843.466 1.794.7 2.849.7Z" clip-rule="evenodd"/><path fill="#000" d="M187.617 29.812c1.769 1.031 3.84 1.547 6.215 1.547 1.688 0 3.153-.258 4.394-.774 1.24-.54 2.203-1.277 2.889-2.21.712-.933 1.069-2.026 1.069-3.279 0-1.45-.475-2.665-1.425-3.647-.951-1.007-2.323-1.756-4.117-2.248l-3.443-.957a8.873 8.873 0 0 1-1.346-.48c-.343-.171-.594-.368-.753-.589a1.245 1.245 0 0 1-.237-.737c0-.515.212-.92.634-1.215.448-.295 1.055-.443 1.82-.443 1.056 0 1.993.258 2.81.774.845.491 1.425 1.154 1.742 1.99l4.394-1.916c-.659-1.67-1.795-2.96-3.404-3.869-1.583-.933-3.431-1.4-5.542-1.4-1.61 0-3.034.27-4.274.81-1.241.517-2.204 1.241-2.89 2.175-.685.933-1.029 2.026-1.029 3.278 0 1.425.475 2.665 1.425 3.721.95 1.032 2.309 1.781 4.077 2.248l3.68.958c.476.123.872.27 1.189.442.316.172.553.368.712.59.158.196.237.441.237.736 0 .565-.224 1.007-.672 1.326-.449.32-1.096.48-1.94.48a5.713 5.713 0 0 1-3.167-.922c-.949-.614-1.701-1.461-2.256-2.542l-4.354 1.916c.634 1.768 1.821 3.18 3.562 4.237Zm39.435-19.01h5.541v2.43a4.68 4.68 0 0 1 1.702-1.767c1.214-.737 2.666-1.106 4.355-1.106 1.794 0 3.364.43 4.71 1.29.8.487 1.425 1.074 1.876 1.762a6.896 6.896 0 0 1 2.042-1.873c1.319-.786 2.863-1.179 4.631-1.179 1.557 0 2.929.32 4.117.958a7.085 7.085 0 0 1 2.85 2.69c.685 1.13 1.028 2.456 1.028 3.979v12.931h-5.937V19.164c0-.785-.158-1.46-.475-2.026a3.175 3.175 0 0 0-1.266-1.326c-.555-.32-1.227-.479-2.019-.479-.765 0-1.438.16-2.019.479a3.45 3.45 0 0 0-1.305 1.326c-.291.565-.437 1.24-.437 2.026v11.753h-5.937V19.164c0-.785-.157-1.46-.474-2.026a3.177 3.177 0 0 0-1.267-1.326c-.554-.32-1.227-.479-2.019-.479-.765 0-1.437.16-2.019.479-.554.32-.989.761-1.306 1.326-.29.565-.435 1.24-.435 2.026v11.753h-5.937V10.801Zm-14.75 20.556c-1.742 0-3.232-.343-4.473-1.031a7.03 7.03 0 0 1-2.771-2.948c-.633-1.252-.95-2.713-.95-4.384V10.801h5.937v11.752c0 .762.159 1.437.475 2.026a3.589 3.589 0 0 0 1.426 1.327c.607.32 1.292.479 2.057.479.792 0 1.479-.16 2.059-.48a3.316 3.316 0 0 0 1.386-1.326c.343-.589.515-1.264.515-2.026V10.801h5.937v20.115h-5.542v-2.448a5.125 5.125 0 0 1-2.137 2.043c-1.109.565-2.415.847-3.919.847Z"/><path fill="#000" fill-rule="evenodd" d="M136.953 31.36c-2.138 0-4.09-.455-5.858-1.364-1.742-.909-3.14-2.15-4.196-3.721-1.029-1.596-1.544-3.402-1.544-5.416 0-2.038.515-3.844 1.544-5.416 1.056-1.571 2.454-2.812 4.196-3.72 1.768-.91 3.72-1.364 5.858-1.364 2.137 0 4.078.455 5.819 1.364 1.742.908 3.127 2.149 4.156 3.72 1.055 1.572 1.584 3.378 1.584 5.416 0 2.014-.529 3.82-1.584 5.416-1.029 1.572-2.414 2.812-4.156 3.72-1.741.91-3.682 1.364-5.819 1.364Zm0-4.974c1.082 0 2.019-.234 2.811-.7a4.84 4.84 0 0 0 1.899-1.953c.475-.835.713-1.793.713-2.874 0-1.08-.238-2.026-.713-2.837a4.841 4.841 0 0 0-1.899-1.952c-.792-.491-1.729-.737-2.811-.737-1.082 0-2.031.246-2.85.737a5.113 5.113 0 0 0-1.939 1.952c-.449.811-.673 1.757-.673 2.837 0 1.08.224 2.039.673 2.874a5.113 5.113 0 0 0 1.939 1.953c.819.466 1.768.7 2.85.7Zm-29.23 11.862c1.425.516 2.969.774 4.632.774 2.084 0 3.918-.393 5.502-1.179 1.609-.786 2.876-1.879 3.799-3.279.924-1.375 1.386-2.947 1.386-4.715V10.802H117.5v2.112a7.358 7.358 0 0 0-2.216-1.67c-1.162-.59-2.521-.885-4.077-.885-1.979 0-3.747.418-5.304 1.253-1.557.835-2.784 1.99-3.681 3.463-.897 1.45-1.346 3.12-1.346 5.01 0 1.892.449 3.587 1.346 5.085.897 1.473 2.137 2.64 3.72 3.5 1.584.835 3.378 1.252 5.384 1.252 1.557 0 2.916-.27 4.076-.81a6.906 6.906 0 0 0 1.703-1.168v1.905c0 .86-.199 1.608-.594 2.247-.37.639-.91 1.117-1.624 1.437-.712.344-1.556.515-2.532.515-1.241 0-2.309-.27-3.207-.81-.897-.54-1.49-1.277-1.781-2.21l-5.502 1.805a7.933 7.933 0 0 0 2.177 3.242c1.03.933 2.257 1.658 3.681 2.173Zm7.046-13.926c-.739.393-1.609.59-2.613.59-1.002 0-1.899-.197-2.691-.59a4.866 4.866 0 0 1-1.821-1.694c-.422-.713-.633-1.535-.633-2.469 0-.958.211-1.793.633-2.505a4.505 4.505 0 0 1 1.821-1.695c.792-.417 1.689-.626 2.691-.626.977 0 1.834.209 2.573.626.74.393 1.32.958 1.742 1.695.422.712.634 1.547.634 2.505s-.212 1.793-.634 2.506a4.102 4.102 0 0 1-1.702 1.657Zm-26.89 7.038c-2.138 0-4.09-.455-5.858-1.364-1.742-.909-3.14-2.15-4.196-3.721-1.03-1.596-1.544-3.402-1.544-5.416 0-2.038.515-3.844 1.544-5.416 1.055-1.571 2.454-2.812 4.196-3.72 1.768-.91 3.72-1.364 5.858-1.364 2.137 0 4.077.455 5.818 1.364 1.742.908 3.127 2.149 4.156 3.72 1.056 1.572 1.584 3.378 1.584 5.416 0 2.014-.528 3.82-1.584 5.416-1.029 1.572-2.414 2.812-4.156 3.72-1.741.91-3.68 1.364-5.818 1.364Zm0-4.974c1.082 0 2.018-.234 2.81-.7a4.84 4.84 0 0 0 1.9-1.953c.475-.835.713-1.793.713-2.874 0-1.08-.238-2.026-.713-2.837a4.84 4.84 0 0 0-1.9-1.952c-.792-.491-1.728-.737-2.81-.737s-2.032.246-2.85.737a5.114 5.114 0 0 0-1.94 1.952c-.448.811-.673 1.757-.673 2.837 0 1.08.225 2.039.673 2.874a5.113 5.113 0 0 0 1.94 1.953c.818.466 1.768.7 2.85.7Z" clip-rule="evenodd"/><path fill="#BB6BD9" d="M38.395 12.494c-2.404-3.852-8.412-3.852-10.815 0l-3.57 5.722h7.154c4.245 0 7.451 2.776 8.26 6.154l.879-1.408a6.934 6.934 0 0 0 0-7.409l-1.908-3.059Z"/><path fill="#EB5757" d="M25.997 35.682c2.723-2.342 3.696-6.275 1.585-9.66l-3.6-5.768h7.182c4.806 0 7.81 4.815 5.407 8.667l-2.346 3.759c-1.159 1.857-3.3 3.002-5.618 3.002h-2.61Z"/><path fill="#F2994A" d="M8.633 30.586c3.563 1.034 7.758-.148 9.878-3.547l3.58-5.738 3.582 5.74c2.403 3.853-.602 8.668-5.409 8.667h-4.692c-2.317-.002-4.458-1.146-5.617-3.003l-1.322-2.119Z"/><path fill="#F2C94C" d="m4.758 14.145-.878 1.407a6.933 6.933 0 0 0 0 7.41l1.91 3.058c2.403 3.852 8.41 3.852 10.814 0l3.58-5.738h-7.168c-4.238 0-7.44-2.767-8.257-6.137Zm2.797-4.483a5.728 5.728 0 0 0 0-.002v.002Z"/><path fill="#27AE60" d="M18.187 2.809C15.463 5.15 14.488 9.085 16.6 12.47l3.6 5.77h-7.185c-4.807 0-7.81-4.814-5.407-8.666L9.955 5.81c1.159-1.857 3.3-3.001 5.617-3.002h2.615Z"/><path fill="#2F80ED" d="m22.097 17.203-3.588-5.751c-2.404-3.852.601-8.667 5.408-8.667h4.69c2.318.001 4.46 1.145 5.619 3.003l1.336 2.142c-3.566-1.04-7.767.14-9.89 3.543l-3.575 5.73Z"/><path fill="#000" fill-rule="evenodd" d="M28.607.746c3.105 0 5.974 1.534 7.527 4.022 2.029 3.253 4.047 6.51 6.077 9.764 1.824 2.923 1.824 6.525 0 9.448-2.022 3.241-4.055 6.477-6.077 9.718-1.553 2.489-4.422 4.022-7.527 4.022-4.346 0-8.69.027-13.035.026-3.105 0-5.973-1.534-7.526-4.022-2.026-3.247-4.049-6.497-6.075-9.744-1.823-2.923-1.823-6.525 0-9.449l6.075-9.738C9.6 2.305 12.467.772 15.572.77c4.346 0 8.69-.025 13.035-.025ZM18.187 2.81h-2.615c-2.068 0-3.996.912-5.21 2.429a6.002 6.002 0 0 0-.407.574L7.607 9.575a6.063 6.063 0 0 0-.05.084c-2.263 3.762.572 8.398 5.181 8.577h7.442v-.023h.003L16.6 12.471c-2.112-3.385-1.137-7.319 1.587-9.661ZM22.09 21.3c.985 1.58 1.967 3.16 2.956 4.738l.626 1.003c2.403 3.853-.602 8.668-5.41 8.667l-4.69-.001c-2.318 0-4.46-1.145-5.618-3.002l-1.322-2.12c3.415.992 7.41-.053 9.603-3.134l.001-.001a8.24 8.24 0 0 0 .274-.411l3.58-5.739Zm-1.926-1.02-2.686 4.306c-.296.475-.58.958-.876 1.433-2.404 3.852-8.412 3.852-10.815 0L3.88 22.96a6.933 6.933 0 0 1 0-7.409l.878-1.407c.408 1.685 1.413 3.219 2.845 4.332 1.36 1.056 3.104 1.733 5.09 1.8.107.003.214.005.322.005h7.15Zm3.817-.027h7.181c4.807 0 7.81 4.815 5.407 8.667l-2.345 3.759c-1.159 1.857-3.3 3.002-5.618 3.002h-2.61c2.722-2.342 3.695-6.275 1.584-9.66l-3.599-5.768Zm-1.886-3.05-3.587-5.751c-2.404-3.852.6-8.668 5.407-8.667h4.69c2.319 0 4.46 1.145 5.62 3.003l1.336 2.142c-3.566-1.04-7.768.14-9.89 3.543l-3.576 5.73Zm5.484-4.71c2.403-3.852 8.41-3.852 10.814 0l1.909 3.058a6.934 6.934 0 0 1 0 7.41l-.879 1.407c-.81-3.378-4.015-6.154-8.26-6.154H24.01l3.57-5.722Z" clip-rule="evenodd"/><path fill="#000" fill-opacity=".22" d="M15.572 2.809h2.614C15.462 5.15 14.488 9.085 16.6 12.47l3.582 5.742h-.003v.023h-2.404l-2.992-4.794c-2.248-3.604-1.686-7.699.613-10.63a7.04 7.04 0 0 1 .176-.002ZM4.758 14.145c.408 1.684 1.413 3.219 2.846 4.332 1.36 1.056 3.104 1.733 5.09 1.8.106.003.213.005.321.005h7.15l-1.21 1.94h-5.94c-4.474 0-8.013-2.473-9.618-5.757.138-.312.298-.617.483-.913l.878-1.407Zm3.875 16.441c3.415.991 7.41-.054 9.603-3.135h.001a8.41 8.41 0 0 0 .274-.412l3.58-5.738a3141.208 3141.208 0 0 1 1.21 1.942l-2.974 4.767c-2.255 3.615-6.388 5.211-10.292 4.82a6.301 6.301 0 0 1-.08-.125l-1.322-2.12Zm20.154 5.094-.18.002h-2.61c2.722-2.342 3.696-6.275 1.584-9.66l-3.599-5.768h2.422l2.994 4.798c2.247 3.603 1.686 7.697-.611 10.628Zm12.001-13.636c-.138.313-.3.62-.485.917l-.878 1.408c-.81-3.378-4.016-6.155-8.261-6.155H24.01l1.21-1.94h5.943c4.48 0 8.022 2.48 9.624 5.77Zm-6.629-16.36.066.104 1.337 2.142c-3.566-1.04-7.768.14-9.89 3.543l-3.575 5.73-1.211-1.94 2.97-4.76c2.257-3.62 6.396-5.215 10.303-4.82Z"/></g><defs><clipPath id="a"><path fill="#fff" d="M0 0h260v40H0z"/></clipPath></defs></svg>